<svg xmlns="http://www.w3.org/2000/svg" viewBox="0 0 500 500">
    <path
       d="m 50,250 0,-200 200,0 200,0 0,200 0,200 -200,0 -200,0 0,-200 z m 389,45 0,-145 -189.5,0 -189.5,0 0,145 0,145 189.5,0 189.5,0 0,-145 z m -289,95.5 0,-24.5 -25,0 -25,0 0,-5.5 0,-5.5 25,0 25,0 0,-27.5 0,-27.5 -25,0 -25,0 0,-5 0,-5 25,0 25,0 0,-27.5 0,-27.5 -25,0 -25,0 0,-5 0,-5 25,0 25,0 0,-25 0,-25 5,0 5,0 0,25 0,25 42.5,0 42.5,0 0,-25 0,-25 5,0 5,0 0,25 0,25 42.5,0 42.5,0 0,-25 0,-25 5,0 5,0 0,25 0,25 25,0 25,0 0,5 0,5 -25,0 -25,0 0,27.5 0,27.5 25,0 25,0 0,5 0,5 -25,0 -25,0 0,27.5 0,27.5 25,0 25,0 0,5.5 0,5.5 -25,0 -25,0 0,24.5 0,24.5 -5,0 -5,0 0,-24.5 0,-24.5 -42.5,0 -42.5,0 0,24.5 0,24.5 -5,0 -5,0 0,-24.5 0,-24.5 -42.5,0 -42.5,0 0,24.5 0,24.5 -5,0 -5,0 0,-24.5 z m 95,-63 0,-27.5 -42.5,0 -42.5,0 0,27.5 0,27.5 42.5,0 42.5,0 0,-27.5 z m 95,0 0,-27.5 -42.5,0 -42.5,0 0,27.5 0,27.5 42.5,0 42.5,0 0,-27.5 z m -95,-65 0,-27.5 -42.5,0 -42.5,0 0,27.5 0,27.5 42.5,0 42.5,0 0,-27.5 z m 95,0 0,-27.5 -42.5,0 -42.5,0 0,27.5 0,27.5 42.5,0 42.5,0 0,-27.5 z M 439,100 439,60 249.5,60 60,60 l 0,40 0,40 189.5,0 189.5,0 0,-40 z m -365,0.5 0,-25.5 175.5,0 175.5,0 0,25.5 0,25.5 -175.5,0 -175.5,0 0,-25.5 z"
       style="fill:#ffffff" />
</svg>
