<?xml version="1.0" encoding="UTF-8" standalone="no"?>
<svg
   xmlns:dc="http://purl.org/dc/elements/1.1/"
   xmlns:cc="http://creativecommons.org/ns#"
   xmlns:rdf="http://www.w3.org/1999/02/22-rdf-syntax-ns#"
   xmlns:svg="http://www.w3.org/2000/svg"
   xmlns="http://www.w3.org/2000/svg"
   xmlns:sodipodi="http://sodipodi.sourceforge.net/DTD/sodipodi-0.dtd"
   xmlns:inkscape="http://www.inkscape.org/namespaces/inkscape"
   viewBox="0 0 2953.0699 418.13277"
   id="svg2"
   version="1.1"
   inkscape:version="0.48.5 r10040"
   width="100%"
   height="100%"
   sodipodi:docname="Calendar v3.svg">
  <metadata
     id="metadata10">
    <rdf:RDF>
      <cc:Work
         rdf:about="">
        <dc:format>image/svg+xml</dc:format>
        <dc:type
           rdf:resource="http://purl.org/dc/dcmitype/StillImage" />
        <dc:title></dc:title>
      </cc:Work>
    </rdf:RDF>
  </metadata>
  <defs
     id="defs8" />
  <sodipodi:namedview
     pagecolor="#ffffff"
     bordercolor="#666666"
     borderopacity="1"
     objecttolerance="10"
     gridtolerance="10"
     guidetolerance="10"
     inkscape:pageopacity="0"
     inkscape:pageshadow="2"
     inkscape:window-width="1369"
     inkscape:window-height="679"
     id="namedview6"
     showgrid="false"
     showguides="true"
     inkscape:guide-bbox="true"
     inkscape:snap-global="false"
     inkscape:zoom="0.25"
     inkscape:cx="145.62456"
     inkscape:cy="364.01673"
     inkscape:window-x="82"
     inkscape:window-y="-3"
     inkscape:window-maximized="0"
     inkscape:current-layer="svg2"
     fit-margin-top="0"
     fit-margin-left="0"
     fit-margin-right="0"
     fit-margin-bottom="0">
    <sodipodi:guide
       orientation="1,0"
       position="49.996094,214.91797"
       id="guide2987" />
    <sodipodi:guide
       orientation="0,1"
       position="105.47266,275.00391"
       id="guide2989" />
    <sodipodi:guide
       orientation="1,0"
       position="350,214.65625"
       id="guide2991" />
    <sodipodi:guide
       orientation="0,1"
       position="75,35"
       id="guide2993" />
    <sodipodi:guide
       orientation="1,0"
       position="125,269.26953"
       id="guide2995" />
    <sodipodi:guide
       orientation="1,0"
       position="275,204.375"
       id="guide2997" />
    <sodipodi:guide
       orientation="0,1"
       position="-24.734375,155"
       id="guide2999" />
    <sodipodi:guide
       orientation="0,1"
       position="344.11812,95.01213"
       id="guide3001" />
    <sodipodi:guide
       orientation="1,0"
       position="200,222"
       id="guide3003" />
    <sodipodi:guide
       orientation="0,1"
       position="-25.1875,215"
       id="guide3005" />
  </sodipodi:namedview>
  <g
     inkscape:groupmode="layer"
     id="layer2"
     inkscape:label="Layer#1"
     transform="translate(-50,-31.867229)">
    <rect
       style="fill:#ffffff;fill-opacity:1;fill-rule:evenodd;stroke:none"
       id="rect3011-1-4-0"
       width="300"
       height="240"
       x="100"
       y="175" />
  </g>
  <path
     d="m 0,218.13277 0,-199.999999 200,0 200,0 0,199.999999 0,200 -200,0 -200,0 z m 389,45 0,-145 -189.5,0 -189.5,0 0,145 0,145 189.5,0 189.5,0 z m 0,-194.999999 0,-40 -189.5,0 -189.5,0 0,40 0,39.999999 189.5,0 189.5,0 z m -365,0.5 0,-25.5 175.5,0 175.5,0 0,25.5 0,25.5 -175.5,0 -175.5,0 z"
     style="fill:#800000"
     id="path4"
     inkscape:connector-curvature="0"
     sodipodi:nodetypes="cccccccccccccccccccccccccccccccccccc" />
  <rect
     style="fill:#800000;fill-opacity:1;fill-rule:evenodd;stroke:none"
     id="rect3011"
     width="75.002434"
     height="60.008781"
     x="275.00058"
     y="323.11884" />
  <rect
     style="fill:#800000;fill-opacity:1;fill-rule:evenodd;stroke:none"
     id="rect3011-1"
     width="75.002434"
     height="60.008781"
     x="275.00238"
     y="143.13113" />
  <rect
     style="fill:#800000;fill-opacity:1;fill-rule:evenodd;stroke:none"
     id="rect3011-1-7"
     width="75.002434"
     height="60.008781"
     x="50"
     y="263.13486" />
  <rect
     style="fill:#800000;fill-opacity:1;fill-rule:evenodd;stroke:none"
     id="rect3011-1-4"
     width="75.002434"
     height="60.008781"
     x="125.00581"
     y="203.11893" />
  <g
     inkscape:groupmode="layer"
     id="layer1"
     inkscape:label="Layer"
     transform="translate(-50,-31.867229)" />
  <rect
     style="fill:#800000;fill-opacity:1;fill-rule:evenodd;stroke:none"
     id="rect3011-1-4-9"
     width="75.002434"
     height="60.008781"
     x="200"
     y="323.12399" />
  <g
     style="font-size:84.28173065px;font-style:normal;font-weight:normal;line-height:125%;letter-spacing:0px;word-spacing:0px;fill:#800000;fill-opacity:1;stroke:none;font-family:Sans"
     id="text3046">
    <path
       d="m 667.47343,236.63084 -155.09608,0 0,106.99829 181.33123,0 0,57.61446 -256.4358,0 0,-374.494007 255.92139,0 0,57.87167 -180.81682,0 0,94.137917 155.09608,0 z"
       style="font-weight:bold;fill:#800000"
       id="path3053" />
    <path
       d="m 802.53818,297.589 4.88694,25.72074 1.54324,0 5.14415,-25.72074 45.78292,-174.64384 78.44827,0 -94.65234,278.29843 -71.76087,0 -94.65233,-278.29843 78.44826,0 z"
       style="font-weight:bold;fill:#800000"
       id="path3055" />
    <path
       d="m 1063.1202,406.64495 c -40.1245,-10e-6 -72.18968,-12.86037 -96.19562,-38.58112 -24.00606,-25.72068 -36.00906,-58.38599 -36.00904,-97.99602 l 0,-10.2883 c -2e-5,-41.32448 11.35996,-75.36156 34.07998,-102.11135 22.71991,-26.7493 53.19898,-40.03834 91.43728,-39.86715 37.5521,2.8e-4 66.7022,11.3174 87.4505,33.95138 20.7478,22.63448 31.1218,53.24213 31.1221,91.82305 l 0,40.89598 -166.156,0 -0.5144,1.54325 c 1.3716,18.34756 7.5017,33.43704 18.3903,45.2685 10.8883,11.8316 25.6777,17.74737 44.3683,17.74731 16.6326,6e-5 30.436,-1.67179 41.4104,-5.01554 10.9739,-3.34364 22.9769,-8.61638 36.009,-15.81826 l 20.3194,46.29734 c -11.3174,9.25948 -26.1496,16.93283 -44.4969,23.02006 -18.3476,6.08724 -38.7527,9.13086 -61.2153,9.13087 z m -6.6874,-230.97227 c -13.8894,2.3e-4 -24.8635,5.31584 -32.9226,15.94686 -8.0593,10.63144 -13.0319,24.60636 -14.918,41.92481 l 0.7716,1.28604 92.0803,0 0,-6.68739 c -2e-4,-15.94668 -3.7297,-28.67843 -11.1886,-38.19531 -7.4592,-9.51645 -18.7334,-14.27478 -33.8227,-14.27501 z"
       style="font-weight:bold;fill:#800000"
       id="path3057" />
    <path
       d="m 1255.7994,122.94516 3.3437,39.86715 c 9.2593,-14.23189 20.6622,-25.2918 34.2086,-33.17976 13.5461,-7.88741 28.7213,-11.83126 45.5257,-11.83154 28.1211,2.8e-4 50.0695,8.83106 65.8451,26.49237 15.7751,17.66181 23.6628,45.35445 23.6631,83.07799 l 0,173.87222 -75.3618,0 0,-173.61501 c -2e-4,-18.69021 -3.7726,-31.93638 -11.3171,-39.73855 -7.545,-7.80173 -18.9478,-11.70271 -34.2086,-11.70293 -9.9455,2.2e-4 -18.862,2.01501 -26.7496,6.04437 -7.8878,4.0298 -14.4894,9.73122 -19.805,17.10429 l 0,201.90783 -75.1045,0 0,-278.29843 z"
       style="font-weight:bold;fill:#800000"
       id="path3059" />
    <path
       d="m 1542.1021,54.785192 0,68.159968 46.8118,0 0,52.72752 -46.8118,0 0,141.72129 c -10e-5,10.80279 2.229,18.519 6.6874,23.14867 4.4581,4.62979 10.4596,6.94465 18.0045,6.9446 3.9437,5e-5 7.3303,-0.21429 10.1597,-0.64302 2.8292,-0.42862 6.13,-1.15738 9.9025,-2.18626 l 6.4302,54.27076 c -7.5449,2.57208 -14.9182,4.50113 -22.1198,5.78717 -7.202,1.28603 -15.0039,1.92905 -23.4059,1.92906 -25.8923,-10e-6 -45.8259,-7.11607 -59.8007,-21.34822 -13.975,-14.23211 -20.9625,-36.78061 -20.9624,-67.64555 l 0,-141.9785 -40.6388,0 0,-52.72752 40.6388,0 0,-68.159968 z"
       style="font-weight:bold;fill:#800000"
       id="path3061" />
    <path
       d="m 1755.8724,324.59578 c -2e-4,-8.23055 -3.9869,-15.34662 -11.9602,-21.34822 -7.9736,-6.0014 -22.763,-11.31701 -44.3683,-15.94686 -32.9226,-6.68727 -57.7431,-16.58975 -74.4615,-29.70745 -16.7185,-13.11743 -25.0778,-30.99332 -25.0777,-53.62775 -10e-5,-24.00581 10.0739,-44.36804 30.2218,-61.08677 20.1479,-16.7182 47.1118,-25.07744 80.8918,-25.07772 35.4944,2.8e-4 63.7443,8.31665 84.7498,24.94912 21.005,16.63299 31.079,37.63824 30.2219,63.01582 l -0.5144,1.54324 -72.5325,0 c -2e-4,-11.14545 -3.5582,-20.23343 -10.6741,-27.26398 -7.1163,-7.03011 -17.5332,-10.54528 -31.2507,-10.54551 -12.1746,2.3e-4 -21.7342,2.95812 -28.6787,8.87366 -6.9447,5.91599 -10.417,13.33213 -10.4169,22.24844 -10e-5,8.57377 3.6437,15.6041 10.9314,21.09101 7.2874,5.48727 22.0768,10.3742 44.3682,14.66082 34.2942,6.85903 59.7577,16.93297 76.3906,30.22188 16.6325,13.28917 24.9489,31.59374 24.9492,54.91378 -3e-4,25.03491 -10.7173,45.48288 -32.151,61.34397 -21.4341,15.86113 -49.7269,23.79168 -84.8784,23.79169 -37.038,-10e-6 -66.3167,-9.38807 -87.8364,-28.16422 -21.5197,-18.7761 -31.7651,-40.16716 -30.7362,-64.17325 l 0.5144,-1.54324 68.6744,0 c 0.5143,14.9181 5.4012,25.7208 14.6608,32.40813 9.2593,6.68745 21.3481,10.03114 36.2662,10.03109 13.8891,5e-5 24.4774,-2.74349 31.7651,-8.23064 7.2874,-5.48703 10.9312,-12.94603 10.9314,-22.37704 z"
       style="font-weight:bold;fill:#800000"
       id="path3063" />
    <path
       d="m 2127.5679,281.38493 0.5144,1.54325 c 0.6856,35.15176 -11.6603,64.55911 -37.0378,88.22214 -25.3781,23.66309 -58.9007,35.49462 -100.5681,35.49463 -42.3536,-10e-6 -76.8623,-15.00376 -103.526,-45.0113 -26.6639,-30.00747 -39.9958,-68.07413 -39.9958,-114.2001 l 0,-66.61672 c 0,-46.1256 13.3319,-84.235127 39.9958,-114.3287 26.6637,-30.092904 61.1724,-45.139523 103.526,-45.139903 42.3532,3.8e-4 76.0474,11.274627 101.0825,33.822776 25.0345,22.548841 37.209,52.427737 36.5234,89.636787 l -0.5144,1.54324 -48.6122,0 c -2e-4,-26.23487 -7.7164,-46.982916 -23.1486,-62.244192 -15.4327,-15.260641 -37.2096,-22.89112 -65.3307,-22.89146 -28.293,3.4e-4 -50.8415,11.403191 -67.6456,34.208587 -16.8043,22.806005 -25.2064,51.098795 -25.2063,84.878445 l 0,67.13114 c -10e-5,34.12297 8.402,62.58723 25.2063,85.39287 16.8041,22.80577 39.3526,34.20862 67.6456,34.20858 28.1211,4e-5 49.898,-7.58757 65.3307,-22.76285 15.4322,-15.17517 23.1484,-36.13755 23.1486,-62.88722 z"
       style="font-size:526.76080322px;letter-spacing:-31.60564995px;fill:#800000;font-family:roboto;-inkscape-font-specification:roboto"
       id="path3065" />
    <path
       d="m 2205.7899,160.24024 c 9.6023,-13.37454 21.391,-23.79143 35.366,-31.25071 13.9748,-7.45873 29.4501,-11.18824 46.426,-11.18852 29.6644,2.8e-4 52.7701,8.9168 69.3174,26.74957 16.5467,17.83329 24.8202,45.26872 24.8205,82.30638 l 0,174.38663 -50.6699,0 0,-174.90105 c -2e-4,-22.977 -4.93,-39.95267 -14.7894,-50.92707 -9.8598,-10.97394 -24.5635,-16.46103 -44.1111,-16.46127 -14.0608,2.4e-4 -26.7925,3.30107 -38.1953,9.90248 -11.4029,6.60189 -20.791,15.56127 -28.1642,26.87818 l 0,205.50873 -50.6699,0 0,-401.243579271164 50.6699,0 z"
       style="font-size:526.76080322px;letter-spacing:-31.60564995px;fill:#800000;font-family:roboto;-inkscape-font-specification:roboto"
       id="path3067" />
    <path
       d="m 2593.9467,401.24359 c -1.7149,-8.4021 -3.0439,-15.81824 -3.9867,-22.24844 -0.9433,-6.43016 -1.5006,-12.9032 -1.6719,-19.41916 -9.4311,13.37481 -21.7342,24.56332 -36.9093,33.56557 -15.1753,9.00226 -31.508,13.50338 -48.998,13.50339 -28.9788,-10e-6 -51.0557,-7.41615 -66.2309,-22.24844 -15.1753,-14.83227 -22.7629,-35.28024 -22.7628,-61.34398 -10e-5,-26.57799 10.7598,-47.3689 32.2795,-62.3728 21.5196,-15.00361 50.7126,-22.50548 87.5791,-22.50565 l 55.0424,0 0,-27.52119 c -2e-4,-16.2896 -4.9729,-29.19282 -14.918,-38.70972 -9.9455,-9.51643 -24.0062,-14.27477 -42.182,-14.27501 -16.29,2.4e-4 -29.5361,4.15843 -39.7386,12.47456 -10.2026,8.3166 -15.3039,18.30481 -15.3038,29.96467 l -48.355,0 -0.5144,-1.54325 c -1.0289,-20.23343 8.5306,-38.75234 28.6786,-55.5568 20.1478,-16.80395 46.1686,-25.20605 78.0624,-25.20633 31.5506,2.8e-4 56.9284,8.01657 76.1334,24.04889 19.2046,16.03284 28.807,39.13862 28.8073,69.31741 l 0,134.00506 c -3e-4,9.9454 0.5141,19.5478 1.5432,28.80723 1.0286,9.25949 2.9148,18.34748 5.6586,27.26399 z m -84.1069,-37.03787 c 18.3474,4e-5 34.8944,-4.71543 49.6411,-14.14641 14.7464,-9.43087 24.3488,-20.23358 28.8072,-32.40813 l 0,-45.26851 -56.8428,0 c -20.4053,1.3e-4 -36.7379,5.14427 -48.998,15.43245 -12.2603,10.2884 -18.3905,22.37713 -18.3904,36.26624 -1e-4,12.34603 3.8581,22.1199 11.5744,29.32165 7.7161,7.20185 19.1189,10.80275 34.2085,10.80271 z"
       style="font-size:526.76080322px;letter-spacing:-31.60564995px;fill:#800000;font-family:roboto;-inkscape-font-specification:roboto"
       id="path3069" />
    <path
       d="m 2813.1184,167.69925 -25.978,-1.54324 c -13.3749,2.3e-4 -24.6492,3.17245 -33.8228,9.51667 -9.1738,6.34467 -16.247,15.26119 -21.2196,26.74957 l 0,198.82134 -50.6698,0 0,-278.29843 45.2685,0 4.8869,40.63877 c 7.8876,-14.40336 17.6186,-25.63474 29.193,-33.69417 11.5742,-8.05889 24.9062,-12.08847 39.9958,-12.08875 3.7722,2.8e-4 7.3731,0.30036 10.8027,0.90023 3.4293,0.60043 6.2586,1.24345 8.4879,1.92905 z"
       style="font-size:526.76080322px;letter-spacing:-31.60564995px;fill:#800000;font-family:roboto;-inkscape-font-specification:roboto"
       id="path3071" />
    <path
       d="m 2897.7703,55.814022 0,67.131138 52.7276,0 0,37.55228 -52.7276,0 0,168.98528 c -1e-4,13.0319 2.7006,22.20562 8.1021,27.52119 5.4012,5.31566 12.5602,7.97347 21.4768,7.97343 2.9149,4e-5 6.13,-0.3429 9.6453,-1.02883 3.515,-0.68584 6.6444,-1.5432 9.388,-2.57207 l 6.6874,34.723 c -3.7725,3.08649 -9.3024,5.6157 -16.5898,7.58762 -7.2877,1.97192 -14.6181,2.95788 -21.9913,2.95789 -20.5767,-10e-6 -36.9522,-6.21585 -49.1266,-18.64754 -12.1745,-12.43167 -18.2618,-31.93654 -18.2617,-58.51469 l 0,-168.98528 -44.2397,0 0,-37.55228 44.2397,0 0,-67.131138 z"
       style="font-size:526.76080322px;letter-spacing:-31.60564995px;fill:#800000;font-family:roboto;-inkscape-font-specification:roboto"
       id="path3073" />
  </g>
</svg>
