<?xml version="1.0" encoding="UTF-8" standalone="no"?>
<!-- Created with Inkscape (http://www.inkscape.org/) -->

<svg
   xmlns:dc="http://purl.org/dc/elements/1.1/"
   xmlns:cc="http://creativecommons.org/ns#"
   xmlns:rdf="http://www.w3.org/1999/02/22-rdf-syntax-ns#"
   xmlns:svg="http://www.w3.org/2000/svg"
   xmlns="http://www.w3.org/2000/svg"
   xmlns:sodipodi="http://sodipodi.sourceforge.net/DTD/sodipodi-0.dtd"
   xmlns:inkscape="http://www.inkscape.org/namespaces/inkscape"
   version="1.2"
   width="800.7359"
   height="109.64972"
   id="svg2"
   inkscape:version="0.48.4 r9939"
   sodipodi:docname="Events Chart Logo.svg">
  <title
     id="title4921">Events Chart Logo</title>
  <sodipodi:namedview
     pagecolor="#ffffff"
     bordercolor="#666666"
     borderopacity="1"
     objecttolerance="10"
     gridtolerance="10"
     guidetolerance="10"
     inkscape:pageopacity="0"
     inkscape:pageshadow="2"
     inkscape:window-width="1611"
     inkscape:window-height="827"
     id="namedview3777"
     showgrid="false"
     fit-margin-top="0"
     fit-margin-left="0"
     fit-margin-right="0"
     fit-margin-bottom="0"
     inkscape:zoom="1.5663829"
     inkscape:cx="296.941"
     inkscape:cy="1.6625662"
     inkscape:window-x="6"
     inkscape:window-y="202"
     inkscape:window-maximized="0"
     inkscape:current-layer="svg2" />
  <defs
     id="defs4" />
  <metadata
     id="metadata7">
    <rdf:RDF>
      <cc:Work
         rdf:about="">
        <dc:format>image/svg+xml</dc:format>
        <dc:type
           rdf:resource="http://purl.org/dc/dcmitype/StillImage" />
        <dc:title>Events Chart Logo</dc:title>
      </cc:Work>
    </rdf:RDF>
  </metadata>
  <path
     style="font-size:39.02461624px;font-style:normal;font-weight:normal;line-height:125%;letter-spacing:-2.14635396px;word-spacing:0px;fill:#ffffff;fill-opacity:1;stroke:none;font-family:Sans"
     d="m 607.32704,0 0,107.47458 8.61611,0 0,-40.699763 c 0,-4.015143 0.5765,-7.581562 1.70054,-10.770134 1.12401,-3.18847 2.64636,-5.82904 4.53479,-8.049256 1.88837,-2.220092 4.05756,-3.92064 6.57545,-5.101641 2.51783,-1.180874 5.14823,-1.813852 7.93589,-1.813917 5.88994,6.9e-5 10.24987,1.932079 13.03753,5.78186 2.78756,3.849905 4.19461,9.787642 4.19468,17.912426 l 0,42.740425 8.61611,0 0,-44.89445 c -7e-5,-9.683619 -1.91521,-17.033751 -5.78186,-21.99374 -3.86676,-4.959858 -9.65719,-7.368963 -17.34559,-7.369038 -10.07148,7.5e-5 -17.73205,4.676576 -23.12743,14.171226 l -0.33993,0 0,-47.388578 -8.61611,0 z m -33.55746,4.081313 c -7.46368,1.034e-4 -14.29084,1.4077768 -20.2932,4.1946827 -6.00243,2.7871033 -11.07853,6.6747393 -15.30492,11.5637203 -4.22642,4.889159 -7.47925,10.595433 -9.7498,17.23221 -2.27059,6.636918 -3.4011,13.840617 -3.4011,21.540262 0,7.321839 1.03865,14.105127 3.17436,20.293193 2.13567,6.188127 5.24878,11.497606 9.18295,15.985146 3.93413,4.487563 8.59594,8.016193 14.17123,10.543393 5.57522,2.5272 11.87179,3.7412 18.70602,3.7412 9.57679,0 18.04448,-1.8706 25.5082,-5.55512 l 0,-9.182953 c -7.05907,4.109667 -15.18085,6.235343 -24.48788,6.235333 -6.06987,10e-6 -11.39908,-1.133686 -15.98514,-3.401086 -4.58612,-2.267381 -8.48387,-5.422841 -11.56372,-9.296328 -3.07989,-3.873444 -5.34191,-8.318486 -6.91556,-13.491003 -1.57368,-5.172457 -2.38076,-10.694505 -2.38076,-16.551993 0,-6.518706 0.85399,-12.522575 2.60751,-18.025799 1.75347,-5.503087 4.26857,-10.359088 7.59577,-14.397965 3.32716,-4.038714 7.38805,-7.142209 12.24394,-9.409694 4.85582,-2.267302 10.41562,-3.401 16.66536,-3.401094 7.86827,9.4e-5 15.29629,1.804562 22.22048,5.44175 l 0,-10.0899116 C 589.28876,5.4040596 581.99751,4.0814134 573.76958,4.081313 z m -433.6395,1.700547 0,101.69272 54.30414,0 0,-14.284598 -38.319,0 0,-30.043003 33.33072,0 0,-14.284594 -33.33072,0 0,-28.68256 36.16497,0 0,-14.397965 -52.15011,0 z m 283.42451,7.595777 -15.64504,4.648162 0,16.892101 -11.56371,0 0,12.810787 11.56371,0 0,41.039871 c -1e-5,13.509902 6.66783,20.293192 20.06646,20.293192 4.99072,0 8.95976,-0.77469 12.0172,-2.38077 l 0,-13.037524 c -1.9334,1.606087 -4.14948,2.380779 -6.80219,2.380767 -3.46209,1.2e-5 -5.9987,-0.878599 -7.48241,-2.720873 -1.48377,-1.842243 -2.15405,-4.997704 -2.15402,-9.296328 l 0,-36.278335 16.43862,0 0,-12.810787 -16.43862,0 0,-21.540263 z m 359.38232,0.22674 -8.6162,2.947614 0,18.365909 -12.1305,0 0,7.935886 12.1305,0 0,45.801403 c 0,13.509901 5.6283,20.293191 16.7788,20.293191 3.507,0 6.6689,-0.82193 9.6364,-2.38076 l 0,-8.049261 c -2.4729,1.700561 -5.0115,2.607511 -7.7091,2.607501 -3.6419,1e-5 -6.2939,-1.11479 -7.8225,-3.287717 -1.5288,-2.172918 -2.2675,-5.74406 -2.2674,-10.656762 l 0,-44.327595 17.799,0 0,-7.935886 -17.799,0 0,-21.313523 z M 293.63279,33.217352 c -9.442,7.8e-5 -17.44558,3.547604 -23.80766,10.656762 -6.36209,7.109292 -9.52307,16.259171 -9.52306,27.548865 0,11.951091 2.95188,21.185992 8.72948,27.775597 5.77756,6.589624 13.75964,9.976544 23.92103,9.976544 10.34116,0 18.64665,-2.07844 24.94135,-6.23534 l 0,-13.264263 c -6.15982,4.629275 -12.91951,6.915561 -20.29319,6.915555 -6.56446,1.2e-5 -11.77739,-1.804452 -15.53166,-5.441747 -3.75434,-3.63727 -5.71541,-8.823931 -5.89523,-15.531665 l 47.04847,0 0,-6.348712 c -7e-5,-11.336928 -2.53861,-20.15142 -7.70916,-26.528532 -5.17065,-6.37698 -12.43845,-9.522989 -21.88037,-9.523064 z m 75.27756,0 c -9.75675,7.8e-5 -17.16328,4.553759 -22.33385,13.717747 l -0.34012,0 0,-12.017199 -15.64503,0 0,72.55668 15.64503,0 0,-41.379985 c -2e-5,-5.715682 1.54578,-10.52917 4.64817,-14.284595 3.10232,-3.755316 7.13784,-5.555059 11.90383,-5.55512 9.12718,6.6e-5 13.60432,6.736114 13.60437,20.293195 l 0,40.926505 15.64503,0 0,-44.44097 c -7e-5,-9.683619 -1.93866,-17.095161 -5.89522,-22.22048 -3.9567,-5.125189 -9.72366,-7.595703 -17.23221,-7.595778 z m 101.01249,0 c -3.59697,7.5e-5 -7.17129,0.439383 -10.54339,1.360438 -3.37215,0.921202 -6.30349,2.262742 -8.95622,4.081313 -2.65275,1.818706 -4.77505,4.019966 -6.3487,6.688819 -1.57367,2.668975 -2.38078,5.800815 -2.38077,9.296323 -10e-6,2.834296 0.36934,5.356773 1.1337,7.482405 0.76434,2.125725 1.89487,3.991604 3.40109,5.668496 1.5062,1.676957 3.39791,3.212174 5.66849,4.534786 2.27055,1.322684 4.87654,2.5603 7.70915,3.741208 l 6.23534,2.380767 c 1.86588,0.708583 3.39017,1.483282 4.76153,2.380762 1.3713,0.897534 2.47837,1.903695 3.28772,3.060985 0.80928,1.157338 1.24703,2.654763 1.24707,4.308055 -4e-5,5.857453 -4.72929,8.729486 -14.17122,8.729474 -7.05902,1.2e-5 -13.54122,-2.352414 -19.38624,-7.028929 l 0,15.304926 c 5.53029,2.64529 12.05938,3.96794 19.61297,3.96794 3.91165,0 7.69408,-0.48655 11.22361,-1.36044 3.52947,-0.87389 6.59856,-2.17292 9.29633,-3.96794 2.69765,-1.79501 4.84341,-4.062411 6.46208,-6.802189 1.61855,-2.739759 2.49406,-5.951898 2.49413,-9.636433 -7e-5,-3.023175 -0.46124,-5.625955 -1.36043,-7.822514 -0.89927,-2.196511 -2.19104,-4.218275 -3.85458,-5.895232 -1.66365,-1.676892 -3.64814,-3.098734 -6.0086,-4.421424 -2.36053,-1.322606 -5.08181,-2.692495 -8.04926,-3.967939 -2.24811,-0.802992 -4.16422,-1.469041 -5.89522,-2.15403 -1.73106,-0.684894 -3.29837,-1.440693 -4.53479,-2.267394 -1.23648,-0.82661 -2.09143,-1.861108 -2.72088,-2.947615 -0.62949,-1.08641 -1.02035,-2.409056 -1.02033,-3.967943 -10e-6,-1.275354 0.39085,-2.451567 1.02033,-3.514464 0.62945,-1.062781 1.48344,-1.965016 2.60751,-2.720876 1.12402,-0.755739 2.48514,-1.27535 4.08131,-1.700546 1.59611,-0.425074 3.35003,-0.680157 5.32838,-0.680219 6.2946,6.5e-5 11.9228,1.719506 16.77873,5.215011 l 0,-14.397966 c -5.03576,-2.031136 -10.73431,-2.94754 -17.11884,-2.947615 z m 225.2658,0 c -2.02332,7.5e-5 -4.09967,0.09927 -6.23534,0.45348 -2.1357,0.354356 -4.2121,0.836175 -6.23534,1.473807 -2.02331,0.63778 -3.96094,1.393578 -5.78186,2.267396 -1.82095,0.873964 -3.43614,1.861224 -4.8749,2.947615 l 0,9.976543 c 6.87914,-6.18804 14.39905,-9.296259 22.44722,-9.296324 10.2962,6.5e-5 15.41826,6.925063 15.41829,20.860045 l -20.97341,3.174353 c -7.82339,1.180979 -13.70563,3.812101 -17.57232,7.709145 -3.86673,3.897116 -5.78186,9.079059 -5.78186,15.645034 0,3.070446 0.57552,5.838554 1.58718,8.389369 1.01162,2.550826 2.44211,4.756815 4.30805,6.575445 1.86591,1.81865 4.12695,3.2027 6.80219,4.19468 2.6752,0.99199 5.62902,1.58718 8.95622,1.58718 4.9008,0 9.26168,-1.30375 13.15089,-3.85457 3.88915,-2.55082 7.04819,-6.14086 9.29633,-10.770135 l 0.22673,0 0,12.924165 8.6161,0 0,-47.275211 c -10e-5,-8.975061 -1.96112,-15.644974 -5.89522,-20.179828 -3.93421,-4.534721 -9.77052,-6.802114 -17.45895,-6.802189 z m 57.81857,0.34011 c -2.1132,7.7e-5 -4.0977,0.377976 -6.0086,1.133698 -1.9109,0.755874 -3.7097,1.847057 -5.3283,3.287724 -1.6187,1.440805 -2.9583,3.226378 -4.1947,5.328381 -1.2365,2.10213 -2.2517,4.383697 -3.061,7.028928 l -0.3399,0 0,-15.418293 -8.5028,0 0,72.55668 8.5028,0 0,-35.598122 c 0,-2.031177 0.093,-4.081276 0.3399,-6.348712 0.2474,-2.267351 0.685,-4.581985 1.2471,-6.802187 0.5619,-2.220108 1.3456,-4.293828 2.2673,-6.348709 0.9217,-2.054773 1.9614,-3.882856 3.2878,-5.441751 1.3263,-1.558772 2.8946,-2.82001 4.6481,-3.741204 1.7535,-0.921063 3.829,-1.360372 6.122,-1.360437 3.1922,6.5e-5 5.7992,0.708624 7.8225,2.267396 l 0,-9.409694 c -0.8993,-0.377829 -1.9595,-0.717938 -3.061,-0.906959 -1.1016,-0.188875 -2.3474,-0.226667 -3.7412,-0.226739 z M 192.6203,34.9179 l 25.50821,72.55668 16.8921,0 26.75527,-72.55668 -16.55199,0 -15.98514,51.01641 c -0.85431,2.834266 -1.52267,5.914143 -1.92729,9.409696 l -0.22674,0 c -0.2698,-2.786988 -0.98505,-6.018025 -2.15403,-9.749801 L 209.62577,34.9179 l -17.00547,0 z m 100.78576,10.316652 c 4.58605,6.5e-5 8.1623,1.705336 10.77013,4.988271 2.60772,3.283059 3.92292,7.813121 3.96794,13.717747 l -31.97028,0 c 0.71936,-5.573964 2.65699,-10.042621 5.78185,-13.491007 3.12482,-3.448274 6.95414,-5.214953 11.45036,-5.215011 z m 416.52065,24.374507 0,7.142297 c -3e-5,3.542837 -0.5306,6.840002 -1.58717,9.863177 -1.05665,3.023205 -2.55556,5.649602 -4.42143,7.822514 -1.86597,2.172935 -4.01267,3.87348 -6.57545,5.101641 -2.56284,1.228182 -5.44537,1.813922 -8.50273,1.813922 -2.24809,0 -4.23263,-0.35901 -6.0086,-1.02033 -1.776,-0.661319 -3.29835,-1.629688 -4.53479,-2.834249 -1.23647,-1.204543 -2.18232,-2.541359 -2.83425,-4.194681 -0.65195,-1.653298 -0.90699,-3.505003 -0.90695,-5.441752 0,-2.598037 0.34573,-4.804022 1.02033,-6.575449 0.67441,-1.771379 1.73555,-3.216839 3.17435,-4.421424 1.43876,-1.204525 3.2386,-2.125647 5.44175,-2.834242 2.20311,-0.708529 4.83351,-1.341511 7.93588,-1.813919 l 17.79906,-2.607505 z"
     id="text4856"
     inkscape:connector-curvature="0" />
  <path
     inkscape:connector-curvature="0"
     d="m 0,55.009054 0,-54.64065971 54.640659,0 54.640661,0 0,54.64065971 0,54.640666 -54.640661,0 -54.640659,0 0,-54.640666 z m 106.27608,12.294149 0,-39.614479 -51.772022,0 -51.772028,0 0,39.614479 0,39.614487 51.772028,0 51.772022,0 0,-39.614487 z m -78.95575,26.090919 0,-6.693484 -6.83008,0 -6.83009,0 0,-1.502619 0,-1.502618 6.83009,0 6.83008,0 0,-7.513091 0,-7.51309 -6.83008,0 -6.83009,0 0,-1.366017 0,-1.366016 6.83009,0 6.83008,0 0,-7.513091 0,-7.513091 -6.83008,0 -6.83009,0 0,-1.366017 0,-1.366014 6.83009,0 6.83008,0 0,-6.830085 0,-6.830082 1.36602,0 1.36601,0 0,6.830082 0,6.830085 11.611142,0 11.611141,0 0,-6.830085 0,-6.830082 1.366016,0 1.366017,0 0,6.830082 0,6.830085 11.61114,0 11.611141,0 0,-6.830085 0,-6.830082 1.366016,0 1.366017,0 0,6.830082 0,6.830085 6.830082,0 6.830083,0 0,1.366014 0,1.366017 -6.830083,0 -6.830082,0 0,7.513091 0,7.513091 6.830082,0 6.830083,0 0,1.366016 0,1.366017 -6.830083,0 -6.830082,0 0,7.51309 0,7.513091 6.830082,0 6.830083,0 0,1.502618 0,1.502619 -6.830083,0 -6.830082,0 0,6.693484 0,6.693488 -1.366017,0 -1.366016,0 0,-6.693488 0,-6.693484 -11.611141,0 -11.61114,0 0,6.693484 0,6.693488 -1.366017,0 -1.366016,0 0,-6.693488 0,-6.693484 -11.611141,0 -11.611142,0 0,6.693484 0,6.693488 -1.36601,0 -1.36602,0 0,-6.693488 z m 25.954313,-17.211812 0,-7.51309 -11.611141,0 -11.611142,0 0,7.51309 0,7.513091 11.611142,0 11.611141,0 0,-7.513091 z m 25.954314,0 0,-7.51309 -11.611141,0 -11.61114,0 0,7.51309 0,7.513091 11.61114,0 11.611141,0 0,-7.513091 z m -25.954314,-17.758214 0,-7.513091 -11.611141,0 -11.611142,0 0,7.513091 0,7.513091 11.611142,0 11.611141,0 0,-7.513091 z m 25.954314,0 0,-7.513091 -11.611141,0 -11.61114,0 0,7.513091 0,7.513091 11.61114,0 11.611141,0 0,-7.513091 z m 27.047123,-44.395537 0,-10.9281318 -51.772022,0 -51.772028,0 0,10.9281318 0,10.928132 51.772028,0 51.772022,0 0,-10.928132 z m -99.7192,0.136602 0,-6.9666838 47.947178,0 47.947182,0 0,6.9666838 0,6.966684 -47.947182,0 -47.947178,0 0,-6.966684 z"
     style="fill:#ffffff" />
</svg>
