<?xml version="1.0" encoding="UTF-8" standalone="no"?>
<!-- Created with Inkscape (http://www.inkscape.org/) -->

<svg
   xmlns:dc="http://purl.org/dc/elements/1.1/"
   xmlns:cc="http://creativecommons.org/ns#"
   xmlns:rdf="http://www.w3.org/1999/02/22-rdf-syntax-ns#"
   xmlns:svg="http://www.w3.org/2000/svg"
   xmlns="http://www.w3.org/2000/svg"
   version="1.1"
   width="100%"
   height="100%"
   viewBox="0 0 500 500"
   id="svg2">
  <title
     id="title3142">logo</title>
  <metadata
     id="metadata10">
    <rdf:RDF>
      <cc:Work
         rdf:about="">
        <dc:format>image/svg+xml</dc:format>
        <dc:type
           rdf:resource="http://purl.org/dc/dcmitype/StillImage" />
        <dc:title>logo</dc:title>
      </cc:Work>
    </rdf:RDF>
  </metadata>
  <defs
     id="defs8" />
  <g
     id="layer2">
    <rect
       width="300"
       height="240"
       x="100"
       y="175"
       id="rect3011-1-4-0"
       style="fill:#ffffff;fill-opacity:1;fill-rule:evenodd;stroke:none" />
  </g>
  <path
     d="m 50,250 0,-200 200,0 200,0 0,200 0,200 -200,0 -200,0 z m 389,45 0,-145 -189.5,0 -189.5,0 0,145 0,145 189.5,0 189.5,0 z m 0,-195 0,-40 -189.5,0 -189.5,0 0,40 0,40 189.5,0 189.5,0 z m -365,0.5 0,-25.5 175.5,0 175.5,0 0,25.5 0,25.5 -175.5,0 -175.5,0 z"
     id="path4"
     style="fill:#ab1f2b;fill-opacity:1" />
  <rect
     width="75.002434"
     height="60.008781"
     x="325.00058"
     y="354.98605"
     id="rect3011"
     style="fill:#ab1f2b;fill-opacity:1;fill-rule:evenodd;stroke:none" />
  <rect
     width="75.002434"
     height="60.008781"
     x="325.00238"
     y="174.99837"
     id="rect3011-1"
     style="fill:#ab1f2b;fill-opacity:1;fill-rule:evenodd;stroke:none" />
  <rect
     width="75.002434"
     height="60.008781"
     x="100"
     y="295.00208"
     id="rect3011-1-7"
     style="fill:#ab1f2b;fill-opacity:1;fill-rule:evenodd;stroke:none" />
  <rect
     width="75.002434"
     height="60.008781"
     x="175.00581"
     y="234.98616"
     id="rect3011-1-4"
     style="fill:#ab1f2b;fill-opacity:1;fill-rule:evenodd;stroke:none" />
  <g
     id="layer1" />
  <rect
     width="75.002434"
     height="60.008781"
     x="250"
     y="354.99121"
     id="rect3011-1-4-9"
     style="fill:#ab1f2b;fill-opacity:1;fill-rule:evenodd;stroke:none" />
</svg>
